<svg xmlns="http://www.w3.org/2000/svg" xmlns:xlink="http://www.w3.org/1999/xlink" width="34" height="39" version="1.1" viewBox="0 0 34 39"><title>bloc</title><desc>Created with Sketch.</desc><g id="Page-1" fill="none" fill-rule="evenodd" stroke="none" stroke-width="1"><g id="bloc"><g id="black-hex" fill="#000"><polygon id="Rectangle" points="16.936 9.238 33.869 18.475 34 38.491 16.936 29.253" transform="translate(25.467925, 23.864151) scale(1, -1) translate(-25.467925, -23.864151)"/><polygon id="Rectangle" points="16.934 0 34 9.238 17 18.475 0 9.238" transform="translate(17.000000, 9.237736) scale(1, -1) translate(-17.000000, -9.237736)"/><polygon id="Rectangle" points="0 9.238 16.936 18.475 16.936 38.491 0 29.253"/></g><g id="cube" transform="translate(2.822642, 3.207547)"><polygon id="Rectangle" fill="#00D3B9" points="14.113 7.698 28.226 15.396 28.336 32.075 14.113 24.377" transform="translate(21.224420, 19.886792) scale(1, -1) translate(-21.224420, -19.886792)"/><path id="Rectangle" fill="#0084C1" stroke="#0084C1" d="M14.1141277,0.569041943 L1.04571825,7.69726526 L14.1678161,14.8271852 L27.2867975,7.69895864 L14.1141277,0.569041943 Z" transform="translate(14.167816, 7.698113) scale(1, -1) translate(-14.167816, -7.698113)"/><polygon id="Rectangle" fill="#82EDDF" points=".019 7.698 14.113 15.396 14.113 32.075 .019 24.377"/></g></g></g></svg>